<svg width="42" height="28" viewBox="0 0 42 28" fill="none" xmlns="http://www.w3.org/2000/svg">
<path d="M20.0383 20.168C19.3023 20.168 18.7103 20.104 18.2623 19.976C17.8143 19.832 17.4783 19.688 17.2543 19.544C17.0463 19.384 16.9423 19.264 16.9423 19.184C16.9423 19.136 16.9583 19.056 16.9903 18.944C17.0383 18.832 17.0863 18.72 17.1343 18.608C17.1983 18.496 17.2703 18.408 17.3503 18.344C17.5743 18.536 17.8943 18.712 18.3103 18.872C18.7263 19.016 19.3023 19.088 20.0383 19.088C21.0943 19.088 21.8463 18.832 22.2943 18.32C22.7423 17.808 22.9663 17.136 22.9663 16.304C22.9663 15.76 22.8383 15.264 22.5823 14.816C22.3263 14.352 21.8863 13.824 21.2623 13.232L18.5743 10.784C18.0943 10.32 17.7103 9.864 17.4223 9.416C17.1503 8.968 17.0143 8.496 17.0143 8C17.0143 7.152 17.3423 6.472 17.9983 5.96C18.6703 5.448 19.6143 5.192 20.8303 5.192C21.5343 5.192 22.1023 5.248 22.5343 5.36C22.9823 5.472 23.3103 5.592 23.5183 5.72C23.7263 5.832 23.8303 5.912 23.8303 5.96C23.8303 6.056 23.7983 6.192 23.7343 6.368C23.6863 6.544 23.6063 6.68 23.4943 6.776C23.3183 6.648 23.0063 6.52 22.5583 6.392C22.1263 6.264 21.5823 6.2 20.9263 6.2C20.0943 6.2 19.4223 6.344 18.9103 6.632C18.3983 6.904 18.1423 7.368 18.1423 8.024C18.1423 8.392 18.2623 8.76 18.5023 9.128C18.7583 9.48 19.0783 9.84 19.4623 10.208L22.4383 12.896C23.0623 13.472 23.4943 14.024 23.7343 14.552C23.9743 15.08 24.0943 15.672 24.0943 16.328C24.0943 17.048 23.9663 17.704 23.7103 18.296C23.4543 18.872 23.0303 19.328 22.4383 19.664C21.8463 20 21.0463 20.168 20.0383 20.168ZM19.8943 22.904V19.712H20.8543V22.4C20.8543 22.624 20.7823 22.76 20.6383 22.808C20.5103 22.872 20.2623 22.904 19.8943 22.904ZM20.2303 5.864V2.84C20.2303 2.616 20.3103 2.48 20.4703 2.432C20.6303 2.368 20.8783 2.336 21.2143 2.336V5.888L20.2303 5.864Z" fill="#D7D7D7"/>
<rect x="0.5" y="0.5" width="41" height="24" stroke="#D7D7D7"/>
</svg>
