<svg width="54" height="53" viewBox="0 0 54 53" fill="none" xmlns="http://www.w3.org/2000/svg">
<rect width="54" height="53" fill="white"/>
<path d="M3.59143 2.64844L3.2359 2.28889L2.88037 2.64844L1.64454 3.89821L1.2969 4.24978L1.64454 4.60134L9.94944 13L1.64454 21.3987L1.2969 21.7502L1.64454 22.1018L2.88037 23.3516L3.2359 23.7111L3.59143 23.3516L13.4798 13.3516L13.8274 13L13.4798 12.6484L3.59143 2.64844Z" stroke="#5F5F5F"/>
<path d="M21.9468 2.29688L21.2357 1.57778L20.5246 2.29687L19.2888 3.54665L18.5935 4.24978L19.2888 4.9529L27.246 13L19.2888 21.0471L18.5935 21.7502L19.2888 22.4533L20.5246 23.7031L21.2357 24.4222L21.9468 23.7031L31.8351 13.7031L32.5304 13L31.8351 12.2969L21.9468 2.29688Z" stroke="#212121" stroke-width="2"/>
<path d="M41.9468 2.29688L41.2357 1.57778L40.5246 2.29687L39.2888 3.54665L38.5935 4.24978L39.2888 4.9529L47.246 13L39.2888 21.0471L38.5935 21.7502L39.2888 22.4533L40.5246 23.7031L41.2357 24.4222L41.9468 23.7031L51.8351 13.7031L52.5304 13L51.8351 12.2969L41.9468 2.29688Z" stroke="#AFAFAF" stroke-width="2"/>
<path d="M11.5328 50.3516L11.8884 50.7111L12.2439 50.3516L13.4797 49.1018L13.8274 48.7502L13.4797 48.3987L5.17483 40L13.4797 31.6013L13.8274 31.2498L13.4797 30.8982L12.2439 29.6484L11.8884 29.2889L11.5328 29.6484L1.64447 39.6484L1.29683 40L1.64447 40.3516L11.5328 50.3516Z" stroke="#5F5F5F"/>
<path d="M29.1773 50.7031L29.8883 51.4222L30.5994 50.7031L31.8352 49.4534L32.5305 48.7502L31.8352 48.0471L23.878 40L31.8352 31.9529L32.5305 31.2498L31.8352 30.5467L30.5994 29.2969L29.8883 28.5778L29.1773 29.2969L19.2889 39.2969L18.5937 40L19.2889 40.7031L29.1773 50.7031Z" stroke="#212121" stroke-width="2"/>
<path d="M49.1773 50.7031L49.8883 51.4222L50.5994 50.7031L51.8352 49.4534L52.5305 48.7502L51.8352 48.0471L43.878 40L51.8352 31.9529L52.5305 31.2498L51.8352 30.5467L50.5994 29.2969L49.8883 28.5778L49.1773 29.2969L39.2889 39.2969L38.5937 40L39.2889 40.7031L49.1773 50.7031Z" stroke="#AFAFAF" stroke-width="2"/>
</svg>
