<svg width="50" height="26" viewBox="0 0 50 26" fill="none" xmlns="http://www.w3.org/2000/svg">
<rect width="50" height="26" fill="white"/>
<path d="M3.59143 2.64844L3.2359 2.28889L2.88037 2.64844L1.64454 3.89821L1.2969 4.24978L1.64454 4.60134L9.94944 13L1.64454 21.3987L1.2969 21.7502L1.64454 22.1018L2.88037 23.3516L3.2359 23.7111L3.59143 23.3516L13.4798 13.3516L13.8274 13L13.4798 12.6484L3.59143 2.64844Z" stroke="#5F5F5F"/>
<path d="M18.9468 2.29688L18.2357 1.57778L17.5246 2.29687L16.2888 3.54665L15.5935 4.24978L16.2888 4.9529L24.246 13L16.2888 21.0471L15.5935 21.7502L16.2888 22.4533L17.5246 23.7031L18.2357 24.4222L18.9468 23.7031L28.8351 13.7031L29.5304 13L28.8351 12.2969L18.9468 2.29688Z" stroke="#212121" stroke-width="2"/>
<path d="M37.9468 2.29688L37.2357 1.57778L36.5246 2.29687L35.2888 3.54665L34.5935 4.24978L35.2888 4.9529L43.246 13L35.2888 21.0471L34.5935 21.7502L35.2888 22.4533L36.5246 23.7031L37.2357 24.4222L37.9468 23.7031L47.8351 13.7031L48.5304 13L47.8351 12.2969L37.9468 2.29688Z" stroke="#AFAFAF" stroke-width="2"/>
</svg>
