<svg width="48" height="48" viewBox="0 0 48 48" fill="none" xmlns="http://www.w3.org/2000/svg">
<path fill-rule="evenodd" clip-rule="evenodd" d="M24 48C10.7452 48 0 37.2548 0 24C0 10.7452 10.7452 0 24 0C37.2548 0 48 10.7452 48 24C48 37.2548 37.2548 48 24 48ZM24.3344 22.653C26.2996 22.653 35.8544 17.28 35.8544 17.28L35.8698 16.32C35.8698 15.2602 35.0096 14.4 33.9469 14.4H14.722C13.6602 14.4 12.8 15.2602 12.8 16.32V17.1754C12.8 17.1754 22.4596 22.653 24.3344 22.653ZM12.8154 20.16C12.8144 20.16 22.4596 25.2931 24.3344 25.2931C26.3898 25.2931 35.8544 20.16 35.8544 20.16L35.8698 31.68C35.8698 32.7399 35.0096 33.6 33.9469 33.6H14.722C13.6612 33.6 12.8 32.7399 12.8 31.68L12.8154 20.16Z" fill="#AFAFAF"/>
</svg>
