<svg width="192" height="144" viewBox="0 0 192 144" fill="none" xmlns="http://www.w3.org/2000/svg">
<g clip-path="url(#clip0)">
<rect width="192" height="144" fill="white"/>
<path fill-rule="evenodd" clip-rule="evenodd" d="M24 0C10.7452 0 0 10.7452 0 24C0 37.2548 10.7452 48 24 48C37.2548 48 48 37.2548 48 24C48 10.7452 37.2548 0 24 0ZM18.7233 11.2773C20.0886 11.2152 20.5249 11.2 24.0012 11.2H23.9972C27.4746 11.2 27.9093 11.2152 29.2746 11.2773C30.6373 11.3397 31.568 11.5554 32.384 11.872C33.2266 12.1986 33.9386 12.636 34.6507 13.348C35.3627 14.0594 35.8 14.7736 36.128 15.6155C36.4427 16.4293 36.6587 17.3595 36.7227 18.7222C36.784 20.0875 36.8 20.5238 36.8 24.0001C36.8 27.4764 36.784 27.9116 36.7227 29.2769C36.6587 30.6391 36.4427 31.5695 36.128 32.3836C35.8 33.2252 35.3627 33.9394 34.6507 34.6509C33.9394 35.3629 33.2264 35.8013 32.3848 36.1282C31.5704 36.4447 30.6391 36.6605 29.2765 36.7229C27.9111 36.785 27.4762 36.8002 23.9996 36.8002C20.5236 36.8002 20.0876 36.785 18.7222 36.7229C17.3598 36.6605 16.4294 36.4447 15.615 36.1282C14.7736 35.8013 14.0595 35.3629 13.3483 34.6509C12.6366 33.9394 12.1992 33.2252 11.872 32.3834C11.5557 31.5695 11.34 30.6394 11.2773 29.2767C11.2155 27.9113 11.2 27.4764 11.2 24.0001C11.2 20.5238 11.216 20.0872 11.2771 18.7219C11.3384 17.3597 11.5544 16.4293 11.8718 15.6152C12.1998 14.7736 12.6371 14.0594 13.3491 13.348C14.0606 12.6362 14.7747 12.1989 15.6166 11.872C16.4305 11.5554 17.3606 11.3397 18.7233 11.2773Z" fill="#5F5F5F"/>
<path fill-rule="evenodd" clip-rule="evenodd" d="M22.853 13.5067C23.0759 13.5064 23.3158 13.5065 23.5746 13.5066L24.0013 13.5067C27.4189 13.5067 27.824 13.519 29.1736 13.5803C30.4216 13.6374 31.0989 13.8459 31.5501 14.0211C32.1475 14.2531 32.5733 14.5305 33.0211 14.9785C33.4691 15.4265 33.7464 15.8532 33.979 16.4505C34.1542 16.9012 34.363 17.5785 34.4198 18.8265C34.4811 20.1759 34.4944 20.5812 34.4944 23.9972C34.4944 27.4133 34.4811 27.8186 34.4198 29.168C34.3627 30.416 34.1542 31.0933 33.979 31.544C33.747 32.1413 33.4691 32.5667 33.0211 33.0144C32.5731 33.4624 32.1477 33.7398 31.5501 33.9718C31.0995 34.1478 30.4216 34.3558 29.1736 34.4128C27.8242 34.4742 27.4189 34.4875 24.0013 34.4875C20.5834 34.4875 20.1783 34.4742 18.8289 34.4128C17.5809 34.3552 16.9036 34.1467 16.4521 33.9715C15.8548 33.7395 15.4281 33.4621 14.9801 33.0141C14.5321 32.5661 14.2548 32.1405 14.0222 31.5429C13.847 31.0923 13.6382 30.4149 13.5814 29.1669C13.5201 27.8176 13.5078 27.4122 13.5078 23.994C13.5078 20.5759 13.5201 20.1727 13.5814 18.8233C13.6385 17.5753 13.847 16.898 14.0222 16.4468C14.2542 15.8494 14.5321 15.4228 14.9801 14.9748C15.4281 14.5268 15.8548 14.2494 16.4521 14.0169C16.9033 13.8409 17.5809 13.6329 18.8289 13.5755C20.0097 13.5222 20.4674 13.5062 22.853 13.5035V13.5067ZM30.8339 15.632C29.9859 15.632 29.2979 16.3192 29.2979 17.1675C29.2979 18.0155 29.9859 18.7035 30.8339 18.7035C31.6819 18.7035 32.3699 18.0155 32.3699 17.1675C32.3699 16.3195 31.6819 15.6315 30.8339 15.6315V15.632ZM17.4279 24.0002C17.4279 20.3701 20.3709 17.4269 24.001 17.4268C27.6312 17.4268 30.5736 20.37 30.5736 24.0002C30.5736 27.6303 27.6314 30.5722 24.0013 30.5722C20.3711 30.5722 17.4279 27.6303 17.4279 24.0002Z" fill="#5F5F5F"/>
<path d="M24.0011 19.7334C26.3574 19.7334 28.2678 21.6436 28.2678 24.0001C28.2678 26.3564 26.3574 28.2668 24.0011 28.2668C21.6445 28.2668 19.7344 26.3564 19.7344 24.0001C19.7344 21.6436 21.6445 19.7334 24.0011 19.7334V19.7334Z" fill="#5F5F5F"/>
<path fill-rule="evenodd" clip-rule="evenodd" d="M48 24C48 37.2548 58.7452 48 72 48C85.2548 48 96 37.2548 96 24C96 10.7452 85.2548 0 72 0C58.7452 0 48 10.7452 48 24ZM67.6 35L68.0083 28.8822L68.008 28.882L79.1369 18.839C79.6253 18.4055 79.0303 18.1941 78.3819 18.5873L64.6473 27.2523L58.7147 25.4006C57.4335 25.0084 57.4243 24.128 59.0023 23.495L82.1203 14.5808C83.1762 14.1015 84.1953 14.8344 83.7922 16.4505L79.8552 35.0031C79.5803 36.3215 78.7837 36.6368 77.68 36.0278L71.6827 31.5969L68.8 34.4C68.7909 34.4088 68.7819 34.4176 68.7729 34.4264C68.4505 34.7403 68.1837 35 67.6 35Z" fill="#5F5F5F"/>
<path fill-rule="evenodd" clip-rule="evenodd" d="M120 0C106.745 0 96 10.7452 96 24C96 37.2548 106.745 48 120 48C133.255 48 144 37.2548 144 24C144 10.7452 133.255 0 120 0ZM121.954 31.5762C121.717 31.8257 121.255 31.8761 121.255 31.8761H119.725C119.725 31.8761 116.35 32.0752 113.376 29.0369C110.133 25.7222 107.27 19.1455 107.27 19.1455C107.27 19.1455 107.104 18.7141 107.283 18.5064C107.485 18.2717 108.035 18.2569 108.035 18.2569L111.692 18.2336C111.692 18.2336 112.036 18.2889 112.283 18.4671C112.487 18.6146 112.601 18.8886 112.601 18.8886C112.601 18.8886 113.192 20.3561 113.975 21.6835C115.503 24.2756 116.215 24.8422 116.733 24.5644C117.489 24.1601 117.263 20.9006 117.263 20.9006C117.263 20.9006 117.276 19.7183 116.882 19.191C116.576 18.7829 116 18.6637 115.746 18.6305C115.54 18.6035 115.878 18.134 116.316 17.9238C116.975 17.608 118.137 17.5895 119.51 17.6031C120.581 17.6141 120.889 17.6793 121.307 17.7788C122.277 18.0087 122.247 18.7455 122.182 20.3357C122.162 20.8112 122.139 21.3631 122.139 22.0006C122.139 22.1439 122.135 22.2966 122.131 22.4537C122.108 23.2683 122.082 24.2012 122.629 24.5484C122.909 24.7254 123.594 24.5742 125.309 21.7179C126.121 20.3635 126.73 18.7719 126.73 18.7719C126.73 18.7719 126.864 18.488 127.07 18.3663C127.282 18.2422 127.567 18.2803 127.567 18.2803L131.416 18.2569C131.416 18.2569 132.573 18.1205 132.76 18.6342C132.956 19.1713 132.328 20.4274 130.755 22.4849C129.263 24.437 128.537 25.1558 128.604 25.7915C128.653 26.256 129.125 26.6761 130.03 27.5006C131.921 29.2234 132.427 30.1299 132.549 30.3476C132.559 30.3657 132.567 30.379 132.572 30.3877C133.42 31.7679 131.632 31.8761 131.632 31.8761L128.212 31.9228C128.212 31.9228 127.478 32.0653 126.512 31.4139C126.005 31.073 125.511 30.5162 125.039 29.9858C124.32 29.1758 123.655 28.4275 123.087 28.6043C122.134 28.9017 122.163 30.9162 122.163 30.9162C122.163 30.9162 122.171 31.3476 121.954 31.5762Z" fill="#5F5F5F"/>
<path fill-rule="evenodd" clip-rule="evenodd" d="M168 48C154.745 48 144 37.2548 144 24C144 10.7452 154.745 0 168 0C181.255 0 192 10.7452 192 24C192 37.2548 181.255 48 168 48ZM168.334 22.653C170.3 22.653 179.854 17.28 179.854 17.28L179.87 16.32C179.87 15.2602 179.01 14.4 177.947 14.4H158.722C157.66 14.4 156.8 15.2602 156.8 16.32V17.1754C156.8 17.1754 166.46 22.653 168.334 22.653ZM156.815 20.16C156.814 20.16 166.46 25.2931 168.334 25.2931C170.39 25.2931 179.854 20.16 179.854 20.16L179.87 31.68C179.87 32.7399 179.01 33.6 177.947 33.6H158.722C157.661 33.6 156.8 32.7399 156.8 31.68L156.815 20.16Z" fill="#5F5F5F"/>
<path fill-rule="evenodd" clip-rule="evenodd" d="M24 48C10.7452 48 0 58.7452 0 72C0 85.2548 10.7452 96 24 96C37.2548 96 48 85.2548 48 72C48 58.7452 37.2548 48 24 48ZM18.7233 59.2773C20.0886 59.2152 20.5249 59.2 24.0012 59.2H23.9972C27.4746 59.2 27.9093 59.2152 29.2746 59.2773C30.6373 59.3397 31.568 59.5554 32.384 59.872C33.2266 60.1986 33.9386 60.636 34.6507 61.348C35.3627 62.0594 35.8 62.7736 36.128 63.6155C36.4427 64.4293 36.6587 65.3595 36.7227 66.7222C36.784 68.0875 36.8 68.5238 36.8 72.0001C36.8 75.4764 36.784 75.9116 36.7227 77.2769C36.6587 78.6391 36.4427 79.5695 36.128 80.3836C35.8 81.2252 35.3627 81.9394 34.6507 82.6509C33.9394 83.3629 33.2264 83.8013 32.3848 84.1282C31.5704 84.4447 30.6391 84.6605 29.2765 84.7229C27.9111 84.785 27.4762 84.8002 23.9996 84.8002C20.5236 84.8002 20.0876 84.785 18.7222 84.7229C17.3598 84.6605 16.4294 84.4447 15.615 84.1282C14.7736 83.8013 14.0595 83.3629 13.3483 82.6509C12.6366 81.9394 12.1992 81.2252 11.872 80.3834C11.5557 79.5695 11.34 78.6394 11.2773 77.2767C11.2155 75.9113 11.2 75.4764 11.2 72.0001C11.2 68.5238 11.216 68.0872 11.2771 66.7219C11.3384 65.3597 11.5544 64.4293 11.8718 63.6152C12.1998 62.7736 12.6371 62.0594 13.3491 61.348C14.0606 60.6362 14.7747 60.1989 15.6166 59.872C16.4305 59.5554 17.3606 59.3397 18.7233 59.2773Z" fill="#212121"/>
<path fill-rule="evenodd" clip-rule="evenodd" d="M22.853 61.5067C23.0759 61.5064 23.3158 61.5065 23.5746 61.5066L24.0013 61.5067C27.4189 61.5067 27.824 61.519 29.1736 61.5803C30.4216 61.6374 31.0989 61.8459 31.5501 62.0211C32.1475 62.2531 32.5733 62.5305 33.0211 62.9785C33.4691 63.4265 33.7464 63.8532 33.979 64.4505C34.1542 64.9012 34.363 65.5785 34.4198 66.8265C34.4811 68.1759 34.4944 68.5812 34.4944 71.9972C34.4944 75.4133 34.4811 75.8186 34.4198 77.168C34.3627 78.416 34.1542 79.0933 33.979 79.544C33.747 80.1413 33.4691 80.5667 33.0211 81.0144C32.5731 81.4624 32.1477 81.7398 31.5501 81.9718C31.0995 82.1478 30.4216 82.3558 29.1736 82.4128C27.8242 82.4742 27.4189 82.4875 24.0013 82.4875C20.5834 82.4875 20.1783 82.4742 18.8289 82.4128C17.5809 82.3552 16.9036 82.1467 16.4521 81.9715C15.8548 81.7395 15.4281 81.4621 14.9801 81.0141C14.5321 80.5661 14.2548 80.1405 14.0222 79.5429C13.847 79.0923 13.6382 78.4149 13.5814 77.1669C13.5201 75.8176 13.5078 75.4122 13.5078 71.994C13.5078 68.5759 13.5201 68.1727 13.5814 66.8233C13.6385 65.5753 13.847 64.898 14.0222 64.4468C14.2542 63.8494 14.5321 63.4228 14.9801 62.9748C15.4281 62.5268 15.8548 62.2494 16.4521 62.0169C16.9033 61.8409 17.5809 61.6329 18.8289 61.5755C20.0097 61.5222 20.4674 61.5062 22.853 61.5035V61.5067ZM30.8339 63.632C29.9859 63.632 29.2979 64.3192 29.2979 65.1675C29.2979 66.0155 29.9859 66.7035 30.8339 66.7035C31.6819 66.7035 32.3699 66.0155 32.3699 65.1675C32.3699 64.3195 31.6819 63.6315 30.8339 63.6315V63.632ZM17.4279 72.0002C17.4279 68.3701 20.3709 65.4269 24.001 65.4268C27.6312 65.4268 30.5736 68.37 30.5736 72.0002C30.5736 75.6303 27.6314 78.5722 24.0013 78.5722C20.3711 78.5722 17.4279 75.6303 17.4279 72.0002Z" fill="#212121"/>
<path d="M24.0011 67.7334C26.3574 67.7334 28.2678 69.6436 28.2678 72.0001C28.2678 74.3564 26.3574 76.2668 24.0011 76.2668C21.6445 76.2668 19.7344 74.3564 19.7344 72.0001C19.7344 69.6436 21.6445 67.7334 24.0011 67.7334V67.7334Z" fill="#212121"/>
<path fill-rule="evenodd" clip-rule="evenodd" d="M48 72C48 85.2548 58.7452 96 72 96C85.2548 96 96 85.2548 96 72C96 58.7452 85.2548 48 72 48C58.7452 48 48 58.7452 48 72ZM67.6 83L68.0083 76.8822L68.008 76.882L79.1369 66.839C79.6253 66.4055 79.0303 66.1941 78.3819 66.5873L64.6473 75.2523L58.7147 73.4006C57.4335 73.0084 57.4243 72.128 59.0023 71.495L82.1203 62.5808C83.1762 62.1015 84.1953 62.8344 83.7922 64.4505L79.8552 83.0031C79.5803 84.3215 78.7837 84.6368 77.68 84.0278L71.6827 79.5969L68.8 82.4C68.7909 82.4088 68.7819 82.4176 68.7729 82.4264C68.4505 82.7403 68.1837 83 67.6 83Z" fill="#212121"/>
<path fill-rule="evenodd" clip-rule="evenodd" d="M120 48C106.745 48 96 58.7452 96 72C96 85.2548 106.745 96 120 96C133.255 96 144 85.2548 144 72C144 58.7452 133.255 48 120 48ZM121.954 79.5762C121.717 79.8257 121.255 79.8761 121.255 79.8761H119.725C119.725 79.8761 116.35 80.0752 113.376 77.0369C110.133 73.7222 107.27 67.1455 107.27 67.1455C107.27 67.1455 107.104 66.7141 107.283 66.5064C107.485 66.2717 108.035 66.2569 108.035 66.2569L111.692 66.2336C111.692 66.2336 112.036 66.2889 112.283 66.4671C112.487 66.6146 112.601 66.8886 112.601 66.8886C112.601 66.8886 113.192 68.3561 113.975 69.6835C115.503 72.2756 116.215 72.8422 116.733 72.5644C117.489 72.1601 117.263 68.9006 117.263 68.9006C117.263 68.9006 117.276 67.7183 116.882 67.191C116.576 66.7829 116 66.6637 115.746 66.6305C115.54 66.6035 115.878 66.134 116.316 65.9238C116.975 65.608 118.137 65.5895 119.51 65.6031C120.581 65.6141 120.889 65.6793 121.307 65.7788C122.277 66.0087 122.247 66.7455 122.182 68.3357C122.162 68.8112 122.139 69.3631 122.139 70.0006C122.139 70.1439 122.135 70.2966 122.131 70.4537C122.108 71.2683 122.082 72.2012 122.629 72.5484C122.909 72.7254 123.594 72.5742 125.309 69.7179C126.121 68.3635 126.73 66.7719 126.73 66.7719C126.73 66.7719 126.864 66.488 127.07 66.3663C127.282 66.2422 127.567 66.2803 127.567 66.2803L131.416 66.2569C131.416 66.2569 132.573 66.1205 132.76 66.6342C132.956 67.1713 132.328 68.4274 130.755 70.4849C129.263 72.437 128.537 73.1558 128.604 73.7915C128.653 74.256 129.125 74.6761 130.03 75.5006C131.921 77.2234 132.427 78.1299 132.549 78.3476C132.559 78.3657 132.567 78.379 132.572 78.3877C133.42 79.7679 131.632 79.8761 131.632 79.8761L128.212 79.9228C128.212 79.9228 127.478 80.0653 126.512 79.4139C126.005 79.073 125.511 78.5162 125.039 77.9858C124.32 77.1758 123.655 76.4275 123.087 76.6043C122.134 76.9017 122.163 78.9162 122.163 78.9162C122.163 78.9162 122.171 79.3476 121.954 79.5762Z" fill="#212121"/>
<path fill-rule="evenodd" clip-rule="evenodd" d="M168 96C154.745 96 144 85.2548 144 72C144 58.7452 154.745 48 168 48C181.255 48 192 58.7452 192 72C192 85.2548 181.255 96 168 96ZM168.334 70.653C170.3 70.653 179.854 65.28 179.854 65.28L179.87 64.32C179.87 63.2602 179.01 62.4 177.947 62.4H158.722C157.66 62.4 156.8 63.2602 156.8 64.32V65.1754C156.8 65.1754 166.46 70.653 168.334 70.653ZM156.815 68.16C156.814 68.16 166.46 73.2931 168.334 73.2931C170.39 73.2931 179.854 68.16 179.854 68.16L179.87 79.68C179.87 80.7399 179.01 81.6 177.947 81.6H158.722C157.661 81.6 156.8 80.7399 156.8 79.68L156.815 68.16Z" fill="#212121"/>
<path fill-rule="evenodd" clip-rule="evenodd" d="M24 96C10.7452 96 0 106.745 0 120C0 133.255 10.7452 144 24 144C37.2548 144 48 133.255 48 120C48 106.745 37.2548 96 24 96ZM18.7233 107.277C20.0886 107.215 20.5249 107.2 24.0012 107.2H23.9972C27.4746 107.2 27.9093 107.215 29.2746 107.277C30.6373 107.34 31.568 107.555 32.384 107.872C33.2266 108.199 33.9386 108.636 34.6507 109.348C35.3627 110.059 35.8 110.774 36.128 111.615C36.4427 112.429 36.6587 113.359 36.7227 114.722C36.784 116.088 36.8 116.524 36.8 120C36.8 123.476 36.784 123.912 36.7227 125.277C36.6587 126.639 36.4427 127.569 36.128 128.384C35.8 129.225 35.3627 129.939 34.6507 130.651C33.9394 131.363 33.2264 131.801 32.3848 132.128C31.5704 132.445 30.6391 132.66 29.2765 132.723C27.9111 132.785 27.4762 132.8 23.9996 132.8C20.5236 132.8 20.0876 132.785 18.7222 132.723C17.3598 132.66 16.4294 132.445 15.615 132.128C14.7736 131.801 14.0595 131.363 13.3483 130.651C12.6366 129.939 12.1992 129.225 11.872 128.383C11.5557 127.569 11.34 126.639 11.2773 125.277C11.2155 123.911 11.2 123.476 11.2 120C11.2 116.524 11.216 116.087 11.2771 114.722C11.3384 113.36 11.5544 112.429 11.8718 111.615C12.1998 110.774 12.6371 110.059 13.3491 109.348C14.0606 108.636 14.7747 108.199 15.6166 107.872C16.4305 107.555 17.3606 107.34 18.7233 107.277Z" fill="#AFAFAF"/>
<path fill-rule="evenodd" clip-rule="evenodd" d="M22.853 109.507C23.0759 109.506 23.3158 109.506 23.5746 109.507L24.0013 109.507C27.4189 109.507 27.824 109.519 29.1736 109.58C30.4216 109.637 31.0989 109.846 31.5501 110.021C32.1475 110.253 32.5733 110.53 33.0211 110.978C33.4691 111.426 33.7464 111.853 33.979 112.451C34.1542 112.901 34.363 113.579 34.4198 114.827C34.4811 116.176 34.4944 116.581 34.4944 119.997C34.4944 123.413 34.4811 123.819 34.4198 125.168C34.3627 126.416 34.1542 127.093 33.979 127.544C33.747 128.141 33.4691 128.567 33.0211 129.014C32.5731 129.462 32.1477 129.74 31.5501 129.972C31.0995 130.148 30.4216 130.356 29.1736 130.413C27.8242 130.474 27.4189 130.487 24.0013 130.487C20.5834 130.487 20.1783 130.474 18.8289 130.413C17.5809 130.355 16.9036 130.147 16.4521 129.971C15.8548 129.739 15.4281 129.462 14.9801 129.014C14.5321 128.566 14.2548 128.141 14.0222 127.543C13.847 127.092 13.6382 126.415 13.5814 125.167C13.5201 123.818 13.5078 123.412 13.5078 119.994C13.5078 116.576 13.5201 116.173 13.5814 114.823C13.6385 113.575 13.847 112.898 14.0222 112.447C14.2542 111.849 14.5321 111.423 14.9801 110.975C15.4281 110.527 15.8548 110.249 16.4521 110.017C16.9033 109.841 17.5809 109.633 18.8289 109.576C20.0097 109.522 20.4674 109.506 22.853 109.504V109.507ZM30.8339 111.632C29.9859 111.632 29.2979 112.319 29.2979 113.167C29.2979 114.015 29.9859 114.704 30.8339 114.704C31.6819 114.704 32.3699 114.015 32.3699 113.167C32.3699 112.319 31.6819 111.631 30.8339 111.631V111.632ZM17.4277 120C17.4277 116.37 20.3708 113.427 24.0009 113.427C27.631 113.427 30.5735 116.37 30.5735 120C30.5735 123.63 27.6313 126.572 24.0011 126.572C20.371 126.572 17.4277 123.63 17.4277 120Z" fill="#AFAFAF"/>
<path d="M24.0011 115.733C26.3574 115.733 28.2678 117.644 28.2678 120C28.2678 122.356 26.3574 124.267 24.0011 124.267C21.6445 124.267 19.7344 122.356 19.7344 120C19.7344 117.644 21.6445 115.733 24.0011 115.733V115.733Z" fill="#AFAFAF"/>
<path fill-rule="evenodd" clip-rule="evenodd" d="M48 120C48 133.255 58.7452 144 72 144C85.2548 144 96 133.255 96 120C96 106.745 85.2548 96 72 96C58.7452 96 48 106.745 48 120ZM67.6 131L68.0083 124.882L68.008 124.882L79.1369 114.839C79.6253 114.406 79.0303 114.194 78.3819 114.587L64.6473 123.252L58.7147 121.401C57.4335 121.008 57.4243 120.128 59.0023 119.495L82.1203 110.581C83.1762 110.101 84.1953 110.834 83.7922 112.45L79.8552 131.003C79.5803 132.321 78.7837 132.637 77.68 132.028L71.6827 127.597L68.8 130.4C68.7909 130.409 68.7819 130.418 68.7729 130.426C68.4505 130.74 68.1837 131 67.6 131Z" fill="#AFAFAF"/>
<path fill-rule="evenodd" clip-rule="evenodd" d="M120 96C106.745 96 96 106.745 96 120C96 133.255 106.745 144 120 144C133.255 144 144 133.255 144 120C144 106.745 133.255 96 120 96ZM121.954 127.576C121.717 127.826 121.255 127.876 121.255 127.876H119.725C119.725 127.876 116.35 128.075 113.376 125.037C110.133 121.722 107.27 115.146 107.27 115.146C107.27 115.146 107.104 114.714 107.283 114.506C107.485 114.272 108.035 114.257 108.035 114.257L111.692 114.234C111.692 114.234 112.036 114.289 112.283 114.467C112.487 114.615 112.601 114.889 112.601 114.889C112.601 114.889 113.192 116.356 113.975 117.684C115.503 120.276 116.215 120.842 116.733 120.564C117.489 120.16 117.263 116.901 117.263 116.901C117.263 116.901 117.276 115.718 116.882 115.191C116.576 114.783 116 114.664 115.746 114.631C115.54 114.604 115.878 114.134 116.316 113.924C116.975 113.608 118.137 113.59 119.51 113.603C120.581 113.614 120.889 113.679 121.307 113.779C122.277 114.009 122.247 114.746 122.182 116.336C122.162 116.811 122.139 117.363 122.139 118.001C122.139 118.144 122.135 118.297 122.131 118.454C122.108 119.268 122.082 120.201 122.629 120.548C122.909 120.725 123.594 120.574 125.309 117.718C126.121 116.364 126.73 114.772 126.73 114.772C126.73 114.772 126.864 114.488 127.07 114.366C127.282 114.242 127.567 114.28 127.567 114.28L131.416 114.257C131.416 114.257 132.573 114.12 132.76 114.634C132.956 115.171 132.328 116.427 130.755 118.485C129.263 120.437 128.537 121.156 128.604 121.791C128.653 122.256 129.125 122.676 130.03 123.501C131.921 125.223 132.427 126.13 132.549 126.348C132.559 126.366 132.567 126.379 132.572 126.388C133.42 127.768 131.632 127.876 131.632 127.876L128.212 127.923C128.212 127.923 127.478 128.065 126.512 127.414C126.005 127.073 125.511 126.516 125.039 125.986C124.32 125.176 123.655 124.428 123.087 124.604C122.134 124.902 122.163 126.916 122.163 126.916C122.163 126.916 122.171 127.348 121.954 127.576Z" fill="#AFAFAF"/>
<path fill-rule="evenodd" clip-rule="evenodd" d="M168 144C154.745 144 144 133.255 144 120C144 106.745 154.745 96 168 96C181.255 96 192 106.745 192 120C192 133.255 181.255 144 168 144ZM168.334 118.653C170.3 118.653 179.854 113.28 179.854 113.28L179.87 112.32C179.87 111.26 179.01 110.4 177.947 110.4H158.722C157.66 110.4 156.8 111.26 156.8 112.32V113.175C156.8 113.175 166.46 118.653 168.334 118.653ZM156.815 116.16C156.814 116.16 166.46 121.293 168.334 121.293C170.39 121.293 179.854 116.16 179.854 116.16L179.87 127.68C179.87 128.74 179.01 129.6 177.947 129.6H158.722C157.661 129.6 156.8 128.74 156.8 127.68L156.815 116.16Z" fill="#AFAFAF"/>
</g>
<defs>
<clipPath id="clip0">
<rect width="192" height="144" fill="white"/>
</clipPath>
</defs>
</svg>
